<mxfile host="app.diagrams.net" modified="2022-11-27T12:21:09.511Z" agent="5.0 (Windows NT 10.0; Win64; x64) AppleWebKit/537.36 (KHTML, like Gecko) Chrome/107.0.0.0 Safari/537.36" etag="FVEX7labzUII1Dcb_S9U" version="20.5.3" type="github">
  <diagram id="mJkv2FqQRV_6GsChbIN9" name="Factory Method">
    <mxGraphModel dx="1422" dy="794" grid="1" gridSize="10" guides="1" tooltips="1" connect="1" arrows="1" fold="1" page="1" pageScale="1" pageWidth="850" pageHeight="1100" math="0" shadow="0">
      <root>
        <mxCell id="0" />
        <mxCell id="1" parent="0" />
        <mxCell id="2kzVzVAAn_KX4tRFRkCm-4" style="edgeStyle=orthogonalEdgeStyle;rounded=0;orthogonalLoop=1;jettySize=auto;html=1;exitX=0.25;exitY=1;exitDx=0;exitDy=0;entryX=0.917;entryY=-0.033;entryDx=0;entryDy=0;entryPerimeter=0;" edge="1" parent="1" source="2kzVzVAAn_KX4tRFRkCm-1" target="2kzVzVAAn_KX4tRFRkCm-2">
          <mxGeometry relative="1" as="geometry" />
        </mxCell>
        <mxCell id="2kzVzVAAn_KX4tRFRkCm-5" style="edgeStyle=orthogonalEdgeStyle;rounded=0;orthogonalLoop=1;jettySize=auto;html=1;exitX=0.75;exitY=1;exitDx=0;exitDy=0;entryX=0.194;entryY=-0.017;entryDx=0;entryDy=0;entryPerimeter=0;" edge="1" parent="1" source="2kzVzVAAn_KX4tRFRkCm-1" target="2kzVzVAAn_KX4tRFRkCm-3">
          <mxGeometry relative="1" as="geometry" />
        </mxCell>
        <mxCell id="2kzVzVAAn_KX4tRFRkCm-1" value="&lt;b&gt;DiscountService&lt;/b&gt;&lt;br&gt;int DiscountPercentag" style="rounded=0;whiteSpace=wrap;html=1;" vertex="1" parent="1">
          <mxGeometry x="383" y="70" width="180" height="60" as="geometry" />
        </mxCell>
        <mxCell id="2kzVzVAAn_KX4tRFRkCm-2" value="&lt;b&gt;CountryDiscountService&lt;/b&gt;&lt;br&gt;int DiscountPercentag" style="rounded=0;whiteSpace=wrap;html=1;" vertex="1" parent="1">
          <mxGeometry x="263" y="180" width="180" height="60" as="geometry" />
        </mxCell>
        <mxCell id="2kzVzVAAn_KX4tRFRkCm-3" value="&lt;b&gt;CodeDiscountService&lt;/b&gt;&lt;br&gt;int DiscountPercentag" style="rounded=0;whiteSpace=wrap;html=1;" vertex="1" parent="1">
          <mxGeometry x="483" y="180" width="180" height="60" as="geometry" />
        </mxCell>
        <mxCell id="2kzVzVAAn_KX4tRFRkCm-11" style="edgeStyle=orthogonalEdgeStyle;rounded=0;orthogonalLoop=1;jettySize=auto;html=1;exitX=0.25;exitY=0;exitDx=0;exitDy=0;entryX=0.95;entryY=1.05;entryDx=0;entryDy=0;entryPerimeter=0;" edge="1" parent="1" source="2kzVzVAAn_KX4tRFRkCm-6" target="2kzVzVAAn_KX4tRFRkCm-7">
          <mxGeometry relative="1" as="geometry" />
        </mxCell>
        <mxCell id="2kzVzVAAn_KX4tRFRkCm-12" style="edgeStyle=orthogonalEdgeStyle;rounded=0;orthogonalLoop=1;jettySize=auto;html=1;exitX=0.75;exitY=0;exitDx=0;exitDy=0;entryX=0.313;entryY=1.033;entryDx=0;entryDy=0;entryPerimeter=0;" edge="1" parent="1" source="2kzVzVAAn_KX4tRFRkCm-6" target="2kzVzVAAn_KX4tRFRkCm-8">
          <mxGeometry relative="1" as="geometry" />
        </mxCell>
        <mxCell id="2kzVzVAAn_KX4tRFRkCm-6" value="&lt;b&gt;DiscountFactory&lt;/b&gt;&lt;br&gt;DiscountService CreateDiscountService()" style="rounded=0;whiteSpace=wrap;html=1;" vertex="1" parent="1">
          <mxGeometry x="263" y="490" width="360" height="60" as="geometry" />
        </mxCell>
        <mxCell id="2kzVzVAAn_KX4tRFRkCm-9" style="edgeStyle=orthogonalEdgeStyle;rounded=0;orthogonalLoop=1;jettySize=auto;html=1;exitX=0;exitY=0.5;exitDx=0;exitDy=0;entryX=0;entryY=0.5;entryDx=0;entryDy=0;" edge="1" parent="1" source="2kzVzVAAn_KX4tRFRkCm-7" target="2kzVzVAAn_KX4tRFRkCm-2">
          <mxGeometry relative="1" as="geometry" />
        </mxCell>
        <mxCell id="2kzVzVAAn_KX4tRFRkCm-7" value="&lt;b&gt;CountryDiscountFactory&lt;/b&gt;&lt;br&gt;DiscountService CreateDiscountService()" style="rounded=0;whiteSpace=wrap;html=1;" vertex="1" parent="1">
          <mxGeometry x="73" y="370" width="240" height="60" as="geometry" />
        </mxCell>
        <mxCell id="2kzVzVAAn_KX4tRFRkCm-10" style="edgeStyle=orthogonalEdgeStyle;rounded=0;orthogonalLoop=1;jettySize=auto;html=1;exitX=1;exitY=0.5;exitDx=0;exitDy=0;entryX=1;entryY=0.5;entryDx=0;entryDy=0;" edge="1" parent="1" source="2kzVzVAAn_KX4tRFRkCm-8" target="2kzVzVAAn_KX4tRFRkCm-3">
          <mxGeometry relative="1" as="geometry" />
        </mxCell>
        <mxCell id="2kzVzVAAn_KX4tRFRkCm-8" value="&lt;b&gt;CodeDiscountFactory&lt;/b&gt;&lt;br&gt;DiscountService CreateDiscountService()" style="rounded=0;whiteSpace=wrap;html=1;" vertex="1" parent="1">
          <mxGeometry x="543" y="370" width="240" height="60" as="geometry" />
        </mxCell>
        <mxCell id="2kzVzVAAn_KX4tRFRkCm-15" style="edgeStyle=orthogonalEdgeStyle;rounded=0;orthogonalLoop=1;jettySize=auto;html=1;exitX=0.5;exitY=0;exitDx=0;exitDy=0;" edge="1" parent="1" source="2kzVzVAAn_KX4tRFRkCm-13">
          <mxGeometry relative="1" as="geometry">
            <mxPoint x="430" y="570" as="targetPoint" />
          </mxGeometry>
        </mxCell>
        <mxCell id="2kzVzVAAn_KX4tRFRkCm-13" value="Client" style="ellipse;whiteSpace=wrap;html=1;" vertex="1" parent="1">
          <mxGeometry x="370" y="660" width="120" height="80" as="geometry" />
        </mxCell>
      </root>
    </mxGraphModel>
  </diagram>
</mxfile>
